<svg xmlns="http://www.w3.org/2000/svg" xmlns:xlink="http://www.w3.org/1999/xlink" width="500" zoomAndPan="magnify" viewBox="0 0 375 374.999991" height="500" preserveAspectRatio="xMidYMid meet" version="1.0"><defs><g/></defs><g fill="#090808" fill-opacity="1"><g transform="translate(64.887019, 169.351864)"><g><path d="M 45.359375 -44.640625 C 42.671875 -43.390625 40.460938 -42.546875 38.734375 -42.109375 C 37.003906 -41.679688 35.660156 -41.441406 34.703125 -41.390625 C 33.742188 -41.347656 33.09375 -41.300781 32.75 -41.25 C 32.414062 -41.195312 32.25 -40.882812 32.25 -40.3125 C 32.25 -39.738281 32.414062 -39.425781 32.75 -39.375 C 33.09375 -39.332031 33.742188 -39.285156 34.703125 -39.234375 C 35.660156 -39.179688 37.003906 -38.941406 38.734375 -38.515625 C 40.460938 -38.085938 42.671875 -37.25 45.359375 -36 L 76.3125 -21.59375 L 76.3125 0 L 4.3125 -34.5625 L 4.3125 -46.078125 L 76.3125 -80.625 L 76.3125 -59.03125 Z M 19 -34.984375 L 10.359375 -35.859375 L 38.15625 -22.46875 Z M 19 -34.984375 "/></g></g></g><g fill="#ff3131" fill-opacity="1"><g transform="translate(160.488576, 169.351864)"><g><path d="M 36 -118.0625 L 49.671875 -116.625 L 54 -113.03125 L 18 22.3125 L 4.3125 20.875 L 0 17.28125 Z M 36 -118.0625 "/></g></g></g><g fill="#000000" fill-opacity="1"><g transform="translate(229.465134, 169.351864)"><g><path d="M 4.3125 -59.03125 L 4.3125 -80.625 L 76.3125 -46.078125 L 76.3125 -34.5625 L 4.3125 0 L 4.3125 -21.59375 L 35.28125 -36 C 37.96875 -37.25 40.171875 -38.085938 41.890625 -38.515625 C 43.617188 -38.941406 44.960938 -39.179688 45.921875 -39.234375 C 46.890625 -39.285156 47.539062 -39.332031 47.875 -39.375 C 48.207031 -39.425781 48.375 -39.738281 48.375 -40.3125 C 48.375 -40.882812 48.207031 -41.195312 47.875 -41.25 C 47.539062 -41.300781 46.890625 -41.347656 45.921875 -41.390625 C 44.960938 -41.441406 43.617188 -41.679688 41.890625 -42.109375 C 40.171875 -42.546875 37.96875 -43.390625 35.28125 -44.640625 Z M 61.625 -45.640625 L 70.265625 -44.78125 L 42.46875 -58.171875 Z M 61.625 -45.640625 "/></g></g></g><g fill="#545454" fill-opacity="1"><g transform="translate(50.376711, 237.903704)"><g><path d="M 11.453125 -19.5 L 16.140625 -19.5 L 16.140625 0 L 11.453125 0 L 11.453125 -7.65625 L 5.578125 -7.65625 L 5.578125 0 L 0.90625 0 L 0.90625 -19.5 L 5.578125 -19.5 L 5.578125 -11.84375 L 11.453125 -11.84375 Z M 11.453125 -19.5 "/></g></g></g><g fill="#545454" fill-opacity="1"><g transform="translate(70.740071, 237.903704)"><g><path d="M 12 -15.515625 L 16.203125 -15.515625 L 16.203125 0 L 12 0 L 12 -1.734375 C 11.132812 -0.617188 9.832031 -0.0625 8.09375 -0.0625 C 5.976562 -0.0390625 4.160156 -0.78125 2.640625 -2.28125 C 1.117188 -3.78125 0.347656 -5.597656 0.328125 -7.734375 C 0.304688 -9.859375 1.046875 -11.679688 2.546875 -13.203125 C 4.046875 -14.722656 5.867188 -15.492188 8.015625 -15.515625 C 9.773438 -15.515625 11.101562 -14.941406 12 -13.796875 Z M 10.734375 -5.09375 C 11.472656 -5.832031 11.84375 -6.734375 11.84375 -7.796875 C 11.84375 -8.878906 11.460938 -9.78125 10.703125 -10.5 C 9.941406 -11.257812 9.054688 -11.617188 8.046875 -11.578125 C 6.984375 -11.578125 6.082031 -11.207031 5.34375 -10.46875 C 4.601562 -9.726562 4.234375 -8.828125 4.234375 -7.765625 C 4.234375 -6.722656 4.613281 -5.820312 5.375 -5.0625 C 6.113281 -4.320312 7.007812 -3.953125 8.0625 -3.953125 C 9.144531 -3.992188 10.035156 -4.375 10.734375 -5.09375 Z M 10.734375 -5.09375 "/></g></g></g><g fill="#545454" fill-opacity="1"><g transform="translate(91.163397, 237.903704)"><g><path d="M 19.796875 -15.484375 C 21.878906 -15.503906 23.570312 -14.882812 24.875 -13.625 C 26.269531 -12.300781 26.96875 -10.445312 26.96875 -8.0625 L 26.96875 0 L 23.0625 0 L 23.0625 -7.796875 C 23.0625 -8.097656 23.015625 -8.4375 22.921875 -8.8125 C 22.773438 -9.28125 22.582031 -9.691406 22.34375 -10.046875 C 21.707031 -11.066406 20.769531 -11.578125 19.53125 -11.578125 C 18.207031 -11.578125 17.25 -11.066406 16.65625 -10.046875 C 16.425781 -9.671875 16.265625 -9.242188 16.171875 -8.765625 C 16.085938 -8.421875 16.046875 -8.078125 16.046875 -7.734375 L 16.046875 0 L 12.125 0 L 12.125 -7.796875 C 12.125 -8.097656 12.070312 -8.4375 11.96875 -8.8125 C 11.851562 -9.28125 11.675781 -9.691406 11.4375 -10.046875 C 10.769531 -11.066406 9.828125 -11.578125 8.609375 -11.578125 C 7.265625 -11.578125 6.296875 -11.066406 5.703125 -10.046875 C 5.484375 -9.671875 5.320312 -9.242188 5.21875 -8.765625 C 5.132812 -8.421875 5.09375 -8.078125 5.09375 -7.734375 L 5.09375 0 L 0.90625 0 L 0.90625 -15.515625 L 5.09375 -15.515625 L 5.09375 -13.890625 C 6.070312 -14.953125 7.332031 -15.484375 8.875 -15.484375 C 11.132812 -15.523438 12.96875 -14.65625 14.375 -12.875 L 15.625 -14.046875 C 16.8125 -15.003906 18.203125 -15.484375 19.796875 -15.484375 Z M 19.796875 -15.484375 "/></g></g></g><g fill="#545454" fill-opacity="1"><g transform="translate(122.352548, 237.903704)"><g><path d="M 13.953125 -4.203125 L 13.953125 0 L 0.90625 0 L 0.90625 -4.203125 L 7.953125 -11.25 L 0.90625 -11.25 L 0.90625 -15.453125 L 13.890625 -15.453125 L 13.890625 -11.25 L 6.84375 -4.203125 Z M 13.953125 -4.203125 "/></g></g></g><g fill="#545454" fill-opacity="1"><g transform="translate(140.526755, 237.903704)"><g><path d="M 12 -15.515625 L 16.203125 -15.515625 L 16.203125 0 L 12 0 L 12 -1.734375 C 11.132812 -0.617188 9.832031 -0.0625 8.09375 -0.0625 C 5.976562 -0.0390625 4.160156 -0.78125 2.640625 -2.28125 C 1.117188 -3.78125 0.347656 -5.597656 0.328125 -7.734375 C 0.304688 -9.859375 1.046875 -11.679688 2.546875 -13.203125 C 4.046875 -14.722656 5.867188 -15.492188 8.015625 -15.515625 C 9.773438 -15.515625 11.101562 -14.941406 12 -13.796875 Z M 10.734375 -5.09375 C 11.472656 -5.832031 11.84375 -6.734375 11.84375 -7.796875 C 11.84375 -8.878906 11.460938 -9.78125 10.703125 -10.5 C 9.941406 -11.257812 9.054688 -11.617188 8.046875 -11.578125 C 6.984375 -11.578125 6.082031 -11.207031 5.34375 -10.46875 C 4.601562 -9.726562 4.234375 -8.828125 4.234375 -7.765625 C 4.234375 -6.722656 4.613281 -5.820312 5.375 -5.0625 C 6.113281 -4.320312 7.007812 -3.953125 8.0625 -3.953125 C 9.144531 -3.992188 10.035156 -4.375 10.734375 -5.09375 Z M 10.734375 -5.09375 "/></g></g></g><g fill="#545454" fill-opacity="1"><g transform="translate(160.95008, 237.903704)"><g/></g></g><g fill="#545454" fill-opacity="1"><g transform="translate(172.077032, 237.903704)"><g><path d="M 21.65625 -19.5 L 21.65625 0 L 16.984375 0 L 16.984375 -10.921875 L 11.1875 -7.234375 L 5.578125 -10.890625 L 5.578125 0 L 0.90625 0 L 0.90625 -19.5 L 11.25 -12.8125 Z M 21.65625 -19.5 "/></g></g></g><g fill="#545454" fill-opacity="1"><g transform="translate(197.958245, 237.903704)"><g><path d="M 15.78125 -7.046875 C 15.800781 -6.628906 15.800781 -6.378906 15.78125 -6.296875 L 4.5 -6.328125 C 4.65625 -5.867188 4.945312 -5.429688 5.375 -5.015625 C 6.15625 -4.273438 7.050781 -3.90625 8.0625 -3.90625 C 9.144531 -3.9375 10.046875 -4.316406 10.765625 -5.046875 L 10.890625 -5.15625 L 14.796875 -3.9375 C 13.929688 -2.59375 13.03125 -1.628906 12.09375 -1.046875 C 11.03125 -0.367188 9.695312 -0.0195312 8.09375 0 C 5.976562 0.0195312 4.160156 -0.71875 2.640625 -2.21875 C 1.117188 -3.71875 0.347656 -5.539062 0.328125 -7.6875 C 0.304688 -9.800781 1.046875 -11.617188 2.546875 -13.140625 C 4.046875 -14.660156 5.867188 -15.429688 8.015625 -15.453125 C 10.128906 -15.472656 11.945312 -14.734375 13.46875 -13.234375 C 14.988281 -11.734375 15.757812 -9.910156 15.78125 -7.765625 Z M 8.046875 -11.515625 C 6.984375 -11.515625 6.082031 -11.144531 5.34375 -10.40625 C 4.957031 -9.988281 4.6875 -9.570312 4.53125 -9.15625 L 11.578125 -9.15625 C 11.421875 -9.570312 11.140625 -10 10.734375 -10.4375 C 9.972656 -11.15625 9.078125 -11.515625 8.046875 -11.515625 Z M 8.046875 -11.515625 "/></g></g></g><g fill="#545454" fill-opacity="1"><g transform="translate(217.391971, 237.903704)"><g><path d="M 8.578125 -15.390625 C 10.773438 -15.566406 12.597656 -15 14.046875 -13.6875 C 15.578125 -12.257812 16.34375 -10.265625 16.34375 -7.703125 L 16.34375 0 L 12.453125 0 L 12.453125 -7.625 L 12.421875 -7.625 L 12.421875 -7.6875 C 12.421875 -8.738281 12.050781 -9.632812 11.3125 -10.375 C 10.570312 -11.113281 9.671875 -11.484375 8.609375 -11.484375 C 7.523438 -11.453125 6.625 -11.070312 5.90625 -10.34375 C 5.144531 -9.582031 4.785156 -8.6875 4.828125 -7.65625 L 4.828125 -7.625 L 4.796875 -7.625 L 4.796875 0 L 0.59375 0 L 0.59375 -15.515625 L 4.796875 -15.515625 L 4.796875 -13.5 C 5.734375 -14.625 6.992188 -15.253906 8.578125 -15.390625 Z M 8.578125 -15.390625 "/></g></g></g><g fill="#545454" fill-opacity="1"><g transform="translate(237.665361, 237.903704)"><g><path d="M 15.78125 -7.046875 C 15.800781 -6.628906 15.800781 -6.378906 15.78125 -6.296875 L 4.5 -6.328125 C 4.65625 -5.867188 4.945312 -5.429688 5.375 -5.015625 C 6.15625 -4.273438 7.050781 -3.90625 8.0625 -3.90625 C 9.144531 -3.9375 10.046875 -4.316406 10.765625 -5.046875 L 10.890625 -5.15625 L 14.796875 -3.9375 C 13.929688 -2.59375 13.03125 -1.628906 12.09375 -1.046875 C 11.03125 -0.367188 9.695312 -0.0195312 8.09375 0 C 5.976562 0.0195312 4.160156 -0.71875 2.640625 -2.21875 C 1.117188 -3.71875 0.347656 -5.539062 0.328125 -7.6875 C 0.304688 -9.800781 1.046875 -11.617188 2.546875 -13.140625 C 4.046875 -14.660156 5.867188 -15.429688 8.015625 -15.453125 C 10.128906 -15.472656 11.945312 -14.734375 13.46875 -13.234375 C 14.988281 -11.734375 15.757812 -9.910156 15.78125 -7.765625 Z M 8.046875 -11.515625 C 6.984375 -11.515625 6.082031 -11.144531 5.34375 -10.40625 C 4.957031 -9.988281 4.6875 -9.570312 4.53125 -9.15625 L 11.578125 -9.15625 C 11.421875 -9.570312 11.140625 -10 10.734375 -10.4375 C 9.972656 -11.15625 9.078125 -11.515625 8.046875 -11.515625 Z M 8.046875 -11.515625 "/></g></g></g><g fill="#545454" fill-opacity="1"><g transform="translate(257.099087, 237.903704)"><g><path d="M 13.265625 -1.859375 C 11.796875 -0.617188 10.09375 0 8.15625 0 C 6.019531 -0.0195312 4.203125 -0.789062 2.703125 -2.3125 C 1.203125 -3.832031 0.460938 -5.648438 0.484375 -7.765625 C 0.503906 -9.910156 1.273438 -11.734375 2.796875 -13.234375 C 4.304688 -14.734375 6.125 -15.472656 8.25 -15.453125 C 10.164062 -15.429688 11.847656 -14.789062 13.296875 -13.53125 L 10.5 -10.765625 C 9.820312 -11.265625 9.0625 -11.515625 8.21875 -11.515625 C 7.175781 -11.515625 6.273438 -11.15625 5.515625 -10.4375 C 4.773438 -9.695312 4.40625 -8.796875 4.40625 -7.734375 C 4.363281 -6.703125 4.722656 -5.804688 5.484375 -5.046875 C 6.203125 -4.316406 7.101562 -3.9375 8.1875 -3.90625 C 9.03125 -3.90625 9.789062 -4.15625 10.46875 -4.65625 Z M 13.265625 -1.859375 "/></g></g></g><g fill="#545454" fill-opacity="1"><g transform="translate(274.163714, 237.903704)"><g><path d="M 15.78125 -7.046875 C 15.800781 -6.628906 15.800781 -6.378906 15.78125 -6.296875 L 4.5 -6.328125 C 4.65625 -5.867188 4.945312 -5.429688 5.375 -5.015625 C 6.15625 -4.273438 7.050781 -3.90625 8.0625 -3.90625 C 9.144531 -3.9375 10.046875 -4.316406 10.765625 -5.046875 L 10.890625 -5.15625 L 14.796875 -3.9375 C 13.929688 -2.59375 13.03125 -1.628906 12.09375 -1.046875 C 11.03125 -0.367188 9.695312 -0.0195312 8.09375 0 C 5.976562 0.0195312 4.160156 -0.71875 2.640625 -2.21875 C 1.117188 -3.71875 0.347656 -5.539062 0.328125 -7.6875 C 0.304688 -9.800781 1.046875 -11.617188 2.546875 -13.140625 C 4.046875 -14.660156 5.867188 -15.429688 8.015625 -15.453125 C 10.128906 -15.472656 11.945312 -14.734375 13.46875 -13.234375 C 14.988281 -11.734375 15.757812 -9.910156 15.78125 -7.765625 Z M 8.046875 -11.515625 C 6.984375 -11.515625 6.082031 -11.144531 5.34375 -10.40625 C 4.957031 -9.988281 4.6875 -9.570312 4.53125 -9.15625 L 11.578125 -9.15625 C 11.421875 -9.570312 11.140625 -10 10.734375 -10.4375 C 9.972656 -11.15625 9.078125 -11.515625 8.046875 -11.515625 Z M 8.046875 -11.515625 "/></g></g></g><g fill="#545454" fill-opacity="1"><g transform="translate(293.597429, 237.903704)"><g><path d="M 0.90625 -15.515625 L 4.796875 -15.515625 L 4.796875 -7.703125 C 4.796875 -7.410156 4.847656 -7.070312 4.953125 -6.6875 C 5.066406 -6.226562 5.242188 -5.8125 5.484375 -5.4375 C 6.148438 -4.4375 7.09375 -3.9375 8.3125 -3.9375 C 9.644531 -3.9375 10.613281 -4.441406 11.21875 -5.453125 C 11.4375 -5.816406 11.597656 -6.238281 11.703125 -6.71875 C 11.773438 -7.0625 11.8125 -7.398438 11.8125 -7.734375 L 11.8125 -15.515625 L 16.015625 -15.515625 L 16.015625 0 L 11.8125 0 L 11.8125 -1.625 C 10.832031 -0.539062 9.578125 0 8.046875 0 C 6.054688 0.0195312 4.375 -0.6875 3 -2.125 C 1.601562 -3.550781 0.90625 -5.3125 0.90625 -7.40625 Z M 0.90625 -15.515625 "/></g></g></g><g fill="#545454" fill-opacity="1"><g transform="translate(313.840836, 237.903704)"><g><path d="M 5.09375 -13.140625 C 5.4375 -14.097656 6.007812 -14.769531 6.8125 -15.15625 C 7.59375 -15.53125 8.757812 -15.71875 10.3125 -15.71875 L 10.3125 -11.4375 C 8.800781 -11.4375 7.535156 -10.914062 6.515625 -9.875 C 5.566406 -8.945312 5.09375 -7.9375 5.09375 -6.84375 L 5.09375 0 L 0.90625 0 L 0.90625 -15.453125 L 5.09375 -15.453125 Z M 5.09375 -13.140625 "/></g></g></g></svg>